<?xml version="1.0" encoding="utf-8"?>
<!-- Generator: Adobe Illustrator 25.0.0, SVG Export Plug-In . SVG Version: 6.00 Build 0)  -->
<svg version="1.1" id="图层_1" xmlns="http://www.w3.org/2000/svg" xmlns:xlink="http://www.w3.org/1999/xlink" x="0px" y="0px"
	 viewBox="0 0 58 46.4" style="enable-background:new 0 0 58 46.4;" xml:space="preserve">
<style type="text/css">
	.st0{fill:url(#SVGID_1_);}
	.st1{fill:url(#SVGID_2_);}
	.st2{fill:url(#SVGID_3_);}
	.st3{fill:url(#SVGID_4_);}
	.st4{fill:url(#SVGID_5_);}
	.st5{fill:url(#SVGID_6_);}
	.st6{fill:url(#SVGID_7_);}
	.st7{fill:url(#SVGID_8_);}
	.st8{fill:url(#SVGID_9_);}
	.st9{fill:url(#SVGID_10_);}
	.st10{fill:url(#SVGID_11_);}
	.st11{fill:url(#SVGID_12_);}
	.st12{fill:url(#SVGID_13_);}
	.st13{fill:url(#SVGID_14_);}
	.st14{fill:url(#SVGID_15_);}
	.st15{fill:url(#SVGID_16_);}
	.st16{fill:url(#SVGID_17_);}
	.st17{fill:url(#SVGID_18_);}
	.st18{fill:url(#SVGID_19_);}
</style>
<g>
	<linearGradient id="SVGID_1_" gradientUnits="userSpaceOnUse" x1="28.8905" y1="14.7162" x2="28.1058" y2="30.0621">
		<stop  offset="0" style="stop-color:#2F90C1"/>
		<stop  offset="1" style="stop-color:#16599A"/>
	</linearGradient>
	<polygon class="st0" points="34.9,20.9 24.9,32.8 28.1,24.6 22.1,24.6 32.1,12.7 28.9,20.9 	"/>
	<g>
		<linearGradient id="SVGID_2_" gradientUnits="userSpaceOnUse" x1="12.1993" y1="22.2686" x2="29.5983" y2="22.2686">
			<stop  offset="0" style="stop-color:#E1E5F0"/>
			<stop  offset="1" style="stop-color:#C8CCD9"/>
		</linearGradient>
		<path class="st1" d="M22.1,38.1c-0.1,0-0.3,0-0.4-0.1c-6.6-3.1-10.3-10.1-9.3-17.3c1.1-8.1,8.1-14.3,16.3-14.3
			c0.5,0,0.9,0.4,0.9,0.9c0,0.5-0.4,0.9-0.9,0.9C21.4,8.3,15.2,13.8,14.2,21c-0.9,6.4,2.4,12.6,8.3,15.4c0.5,0.2,0.7,0.8,0.4,1.2
			C22.8,38,22.4,38.1,22.1,38.1z"/>
	</g>
	<g>
		<linearGradient id="SVGID_3_" gradientUnits="userSpaceOnUse" x1="6.2744" y1="34.284" x2="21.6124" y2="34.284">
			<stop  offset="0" style="stop-color:#E1E5F0"/>
			<stop  offset="1" style="stop-color:#C8CCD9"/>
		</linearGradient>
		<path class="st2" d="M20.1,44c-0.2,0-0.4,0-0.6-0.1c-7-3.2-12.1-9.9-13.2-17.5c-0.1-0.8,0.4-1.6,1.3-1.7c0.8-0.1,1.6,0.4,1.7,1.3
			c1,6.6,5.4,12.4,11.5,15.2c0.8,0.3,1.1,1.2,0.8,2C21.2,43.6,20.7,44,20.1,44z"/>
	</g>
	<g>
		<linearGradient id="SVGID_4_" gradientUnits="userSpaceOnUse" x1="6.3152" y1="10.731" x2="32.3426" y2="10.731">
			<stop  offset="0" style="stop-color:#E1E5F0"/>
			<stop  offset="1" style="stop-color:#C8CCD9"/>
		</linearGradient>
		<path class="st3" d="M7.8,21.2c-0.1,0-0.2,0-0.2,0c-0.8-0.1-1.4-0.9-1.3-1.7C8.2,7.6,19-0.8,31,0.3c0.8,0.1,1.4,0.8,1.4,1.6
			c-0.1,0.8-0.8,1.4-1.6,1.4c-10.4-1-19.8,6.3-21.4,16.6C9.2,20.7,8.5,21.2,7.8,21.2z"/>
	</g>
	<g>
		<linearGradient id="SVGID_5_" gradientUnits="userSpaceOnUse" x1="28.1944" y1="23.8051" x2="45.4967" y2="23.8051">
			<stop  offset="0" style="stop-color:#E1E5F0"/>
			<stop  offset="1" style="stop-color:#C8CCD9"/>
		</linearGradient>
		<path class="st4" d="M29.1,39.7c-0.5,0-0.9-0.4-0.9-0.9c0-0.5,0.4-0.9,0.9-0.9c7.3-0.1,13.4-5.5,14.4-12.7
			c0.9-6.4-2.4-12.6-8.3-15.4c-0.5-0.2-0.7-0.8-0.4-1.2C35,8,35.6,7.8,36,8c6.6,3.1,10.3,10.1,9.3,17.3
			C44.2,33.5,37.4,39.5,29.1,39.7C29.1,39.7,29.1,39.7,29.1,39.7z"/>
	</g>
	<g>
		<linearGradient id="SVGID_6_" gradientUnits="userSpaceOnUse" x1="25.4241" y1="35.1493" x2="51.4376" y2="35.1493">
			<stop  offset="0" style="stop-color:#E1E5F0"/>
			<stop  offset="1" style="stop-color:#C8CCD9"/>
		</linearGradient>
		<path class="st5" d="M28.9,45.8c-0.7,0-1.4,0-2.1-0.1c-0.8-0.1-1.4-0.8-1.4-1.6c0.1-0.8,0.8-1.4,1.6-1.4c10.5,1,19.9-6.5,21.4-17
			c0.1-0.8,0.9-1.4,1.7-1.3c0.8,0.1,1.4,0.9,1.3,1.7C49.8,37.5,40.1,45.8,28.9,45.8z"/>
	</g>
	<g>
		<linearGradient id="SVGID_7_" gradientUnits="userSpaceOnUse" x1="36.1028" y1="11.717" x2="51.3992" y2="11.717">
			<stop  offset="0" style="stop-color:#E1E5F0"/>
			<stop  offset="1" style="stop-color:#C8CCD9"/>
		</linearGradient>
		<path class="st6" d="M49.9,21.3c-0.7,0-1.4-0.5-1.5-1.3c-1-6.6-5.3-12.3-11.4-15c-0.8-0.3-1.1-1.2-0.8-2c0.3-0.8,1.2-1.1,2-0.8
			c7.1,3.2,12,9.7,13.2,17.3c0.1,0.8-0.4,1.6-1.3,1.7C50,21.3,50,21.3,49.9,21.3z"/>
	</g>
	<g>
		<g>
			
				<linearGradient id="SVGID_8_" gradientUnits="userSpaceOnUse" x1="188.095" y1="5.5766" x2="193.0357" y2="5.5766" gradientTransform="matrix(1 0 0 1 -142.9822 0)">
				<stop  offset="0" style="stop-color:#E1E5F0"/>
				<stop  offset="1" style="stop-color:#C8CCD9"/>
			</linearGradient>
			<path class="st7" d="M49.1,6.5H46c-0.5,0-0.9-0.4-0.9-0.9s0.4-0.9,0.9-0.9h3.1c0.5,0,0.9,0.4,0.9,0.9S49.6,6.5,49.1,6.5z"/>
		</g>
		<g>
			
				<linearGradient id="SVGID_9_" gradientUnits="userSpaceOnUse" x1="191.7143" y1="5.5766" x2="197.7071" y2="5.5766" gradientTransform="matrix(1 0 0 1 -142.9822 0)">
				<stop  offset="0" style="stop-color:#E1E5F0"/>
				<stop  offset="1" style="stop-color:#C8CCD9"/>
			</linearGradient>
			<path class="st8" d="M51.7,8.6c-1.7,0-3-1.3-3-3s1.3-3,3-3c1.7,0,3,1.3,3,3S53.4,8.6,51.7,8.6z M51.7,4.4c-0.6,0-1.1,0.5-1.1,1.1
				s0.5,1.1,1.1,1.1c0.6,0,1.1-0.5,1.1-1.1S52.4,4.4,51.7,4.4z"/>
		</g>
		<g>
			
				<linearGradient id="SVGID_10_" gradientUnits="userSpaceOnUse" x1="188.095" y1="40.3826" x2="193.0357" y2="40.3826" gradientTransform="matrix(1 0 0 1 -142.9822 0)">
				<stop  offset="0" style="stop-color:#E1E5F0"/>
				<stop  offset="1" style="stop-color:#C8CCD9"/>
			</linearGradient>
			<path class="st9" d="M49.1,41.3H46c-0.5,0-0.9-0.4-0.9-0.9s0.4-0.9,0.9-0.9h3.1c0.5,0,0.9,0.4,0.9,0.9S49.6,41.3,49.1,41.3z"/>
		</g>
		<g>
			
				<linearGradient id="SVGID_11_" gradientUnits="userSpaceOnUse" x1="191.7143" y1="40.3826" x2="197.7071" y2="40.3826" gradientTransform="matrix(1 0 0 1 -142.9822 0)">
				<stop  offset="0" style="stop-color:#E1E5F0"/>
				<stop  offset="1" style="stop-color:#C8CCD9"/>
			</linearGradient>
			<path class="st10" d="M51.7,43.4c-1.7,0-3-1.3-3-3c0-1.7,1.3-3,3-3c1.7,0,3,1.3,3,3C54.7,42,53.4,43.4,51.7,43.4z M51.7,39.2
				c-0.6,0-1.1,0.5-1.1,1.1c0,0.6,0.5,1.1,1.1,1.1c0.6,0,1.1-0.5,1.1-1.1C52.9,39.8,52.4,39.2,51.7,39.2z"/>
		</g>
		<g>
			
				<linearGradient id="SVGID_12_" gradientUnits="userSpaceOnUse" x1="189.3811" y1="22.9794" x2="196.8405" y2="22.9794" gradientTransform="matrix(1 0 0 1 -142.9822 0)">
				<stop  offset="0" style="stop-color:#E1E5F0"/>
				<stop  offset="1" style="stop-color:#C8CCD9"/>
			</linearGradient>
			<path class="st11" d="M52.9,23.9h-5.6c-0.5,0-0.9-0.4-0.9-0.9s0.4-0.9,0.9-0.9h5.6c0.5,0,0.9,0.4,0.9,0.9S53.4,23.9,52.9,23.9z"
				/>
		</g>
		<g>
			
				<linearGradient id="SVGID_13_" gradientUnits="userSpaceOnUse" x1="194.9897" y1="22.9794" x2="200.9822" y2="22.9794" gradientTransform="matrix(1 0 0 1 -142.9822 0)">
				<stop  offset="0" style="stop-color:#E1E5F0"/>
				<stop  offset="1" style="stop-color:#C8CCD9"/>
			</linearGradient>
			<path class="st12" d="M55,26c-1.7,0-3-1.3-3-3c0-1.7,1.3-3,3-3s3,1.3,3,3C58,24.6,56.7,26,55,26z M55,21.8
				c-0.6,0-1.1,0.5-1.1,1.1c0,0.6,0.5,1.1,1.1,1.1s1.1-0.5,1.1-1.1C56.1,22.3,55.6,21.8,55,21.8z"/>
		</g>
	</g>
	<g>
		<g>
			
				<linearGradient id="SVGID_14_" gradientUnits="userSpaceOnUse" x1="-2913.7971" y1="5.5766" x2="-2908.8564" y2="5.5766" gradientTransform="matrix(-1 0 0 1 -2900.9099 0)">
				<stop  offset="0" style="stop-color:#E1E5F0"/>
				<stop  offset="1" style="stop-color:#C8CCD9"/>
			</linearGradient>
			<path class="st13" d="M12,6.5H8.9c-0.5,0-0.9-0.4-0.9-0.9s0.4-0.9,0.9-0.9H12c0.5,0,0.9,0.4,0.9,0.9S12.5,6.5,12,6.5z"/>
		</g>
		<g>
			
				<linearGradient id="SVGID_15_" gradientUnits="userSpaceOnUse" x1="-2910.1775" y1="5.5766" x2="-2904.1848" y2="5.5766" gradientTransform="matrix(-1 0 0 1 -2900.9099 0)">
				<stop  offset="0" style="stop-color:#E1E5F0"/>
				<stop  offset="1" style="stop-color:#C8CCD9"/>
			</linearGradient>
			<path class="st14" d="M6.3,8.6c-1.7,0-3-1.3-3-3s1.3-3,3-3s3,1.3,3,3S7.9,8.6,6.3,8.6z M6.3,4.4c-0.6,0-1.1,0.5-1.1,1.1
				s0.5,1.1,1.1,1.1s1.1-0.5,1.1-1.1S6.9,4.4,6.3,4.4z"/>
		</g>
		<g>
			
				<linearGradient id="SVGID_16_" gradientUnits="userSpaceOnUse" x1="-2913.7971" y1="40.3826" x2="-2908.8564" y2="40.3826" gradientTransform="matrix(-1 0 0 1 -2900.9099 0)">
				<stop  offset="0" style="stop-color:#E1E5F0"/>
				<stop  offset="1" style="stop-color:#C8CCD9"/>
			</linearGradient>
			<path class="st15" d="M12,41.3H8.9c-0.5,0-0.9-0.4-0.9-0.9s0.4-0.9,0.9-0.9H12c0.5,0,0.9,0.4,0.9,0.9S12.5,41.3,12,41.3z"/>
		</g>
		<g>
			
				<linearGradient id="SVGID_17_" gradientUnits="userSpaceOnUse" x1="-2910.1775" y1="40.3826" x2="-2904.1848" y2="40.3826" gradientTransform="matrix(-1 0 0 1 -2900.9099 0)">
				<stop  offset="0" style="stop-color:#E1E5F0"/>
				<stop  offset="1" style="stop-color:#C8CCD9"/>
			</linearGradient>
			<path class="st16" d="M6.3,43.4c-1.7,0-3-1.3-3-3c0-1.7,1.3-3,3-3s3,1.3,3,3C9.3,42,7.9,43.4,6.3,43.4z M6.3,39.2
				c-0.6,0-1.1,0.5-1.1,1.1c0,0.6,0.5,1.1,1.1,1.1s1.1-0.5,1.1-1.1C7.4,39.8,6.9,39.2,6.3,39.2z"/>
		</g>
		<g>
			
				<linearGradient id="SVGID_18_" gradientUnits="userSpaceOnUse" x1="-2912.511" y1="22.9794" x2="-2905.0515" y2="22.9794" gradientTransform="matrix(-1 0 0 1 -2900.9099 0)">
				<stop  offset="0" style="stop-color:#E1E5F0"/>
				<stop  offset="1" style="stop-color:#C8CCD9"/>
			</linearGradient>
			<path class="st17" d="M10.7,23.9H5.1c-0.5,0-0.9-0.4-0.9-0.9s0.4-0.9,0.9-0.9h5.6c0.5,0,0.9,0.4,0.9,0.9S11.2,23.9,10.7,23.9z"/>
		</g>
		<g>
			
				<linearGradient id="SVGID_19_" gradientUnits="userSpaceOnUse" x1="-2906.9023" y1="22.9794" x2="-2900.9099" y2="22.9794" gradientTransform="matrix(-1 0 0 1 -2900.9099 0)">
				<stop  offset="0" style="stop-color:#E1E5F0"/>
				<stop  offset="1" style="stop-color:#C8CCD9"/>
			</linearGradient>
			<path class="st18" d="M3,26c-1.7,0-3-1.3-3-3c0-1.7,1.3-3,3-3s3,1.3,3,3C6,24.6,4.6,26,3,26z M3,21.8c-0.6,0-1.1,0.5-1.1,1.1
				c0,0.6,0.5,1.1,1.1,1.1s1.1-0.5,1.1-1.1C4.1,22.3,3.6,21.8,3,21.8z"/>
		</g>
	</g>
</g>
</svg>
