<?xml version="1.0" encoding="utf-8"?>
<!-- Generator: Adobe Illustrator 25.0.0, SVG Export Plug-In . SVG Version: 6.00 Build 0)  -->
<svg version="1.1" id="图层_1" xmlns="http://www.w3.org/2000/svg" xmlns:xlink="http://www.w3.org/1999/xlink" x="0px" y="0px"
	 viewBox="0 0 54 44" style="enable-background:new 0 0 54 44;" xml:space="preserve">
<style type="text/css">
	.st0{fill:#CBCEDD;}
	.st1{fill:url(#SVGID_1_);}
</style>
<g>
	<path class="st0" d="M27.3,44H6.1c-1.3,0-2.3-1-2.3-2.3v-24c0-0.7,0.6-1.3,1.3-1.3s1.3,0.6,1.3,1.3v23.7h20.9
		c0.7,0,1.3,0.6,1.3,1.3C28.6,43.4,28,44,27.3,44z"/>
	<path class="st0" d="M1.3,22.9c-0.3,0-0.7-0.1-0.9-0.4c-0.5-0.5-0.5-1.3,0-1.9l19.8-20c0.9-0.9,2.4-0.9,3.3,0l10,10.1
		c0.5,0.5,0.5,1.3,0,1.9c-0.5,0.5-1.3,0.5-1.8,0l-9.8-9.9L2.2,22.5C2,22.8,1.6,22.9,1.3,22.9z"/>
	<path class="st0" d="M39,44c-8.3,0-15-6.8-15-15.2c0-8.4,6.7-15.2,15-15.2c8.3,0,15,6.8,15,15.2C54,37.2,47.3,44,39,44z M39,16.3
		c-6.8,0-12.4,5.6-12.4,12.5S32.2,41.4,39,41.4s12.4-5.6,12.4-12.5S45.8,16.3,39,16.3z"/>
	<path class="st0" d="M9.6,7.7l-4.7,3.8c-0.4,0.4-1.1,0-1.1-0.5V5.6c0-0.6,0.5-1.1,1.1-1.1h4.4c0.6,0,1,0.5,1,1v0.7
		C10.3,6.8,10.1,7.3,9.6,7.7z"/>
	<rect x="12.9" y="24.9" class="st0" width="4.6" height="4.6"/>
	<linearGradient id="SVGID_1_" gradientUnits="userSpaceOnUse" x1="31.8449" y1="29.8079" x2="44.8774" y2="29.8079">
		<stop  offset="0" style="stop-color:#2F90C1"/>
		<stop  offset="1" style="stop-color:#16599A"/>
	</linearGradient>
	<polygon class="st1" points="44.9,30.5 44.9,28.5 39.4,28.5 44.1,22 43,21.2 38.4,27.7 33.7,21.2 32.6,22 37.3,28.5 31.8,28.5 
		31.8,30.5 37.4,30.5 37.4,32.8 31.8,32.8 31.8,34.8 37.4,34.8 37.4,38.4 39.3,38.4 39.3,34.8 44.9,34.8 44.9,32.8 39.3,32.8 
		39.3,30.5 	"/>
</g>
</svg>
