<?xml version="1.0" encoding="utf-8"?>
<!-- Generator: Adobe Illustrator 25.0.0, SVG Export Plug-In . SVG Version: 6.00 Build 0)  -->
<svg version="1.1" id="图层_1" xmlns="http://www.w3.org/2000/svg" xmlns:xlink="http://www.w3.org/1999/xlink" x="0px" y="0px"
	 viewBox="0 0 54 44" style="enable-background:new 0 0 54 44;" xml:space="preserve">
<style type="text/css">
	.st0{fill:#CBCEDD;}
	.st1{fill:url(#SVGID_1_);}
</style>
<g>
	<path class="st0" d="M9.4,14.6L27,4.7l17.5,9.8l0,9l2.5,0l0-10.4L27,2L7,13.2l0,28.2h0.6V42h8.3v-2.4H9.5L9.4,14.6z"/>
	<rect x="19" y="39.6" class="st0" width="26" height="2.4"/>
	<polygon class="st0" points="14.1,14.7 25.9,7.9 27.2,9.9 15.4,16.7 	"/>
	<path class="st0" d="M12.8,15.3c-0.9,0-1.5,0.7-1.5,1.5c0,0.8,0.7,1.5,1.5,1.5s1.5-0.7,1.5-1.5C14.3,16,13.6,15.3,12.8,15.3z
		 M12.5,16.8c0-0.3,0.6-0.3,0.6,0C13.1,17.2,12.5,17.2,12.5,16.8z"/>
	<polygon class="st0" points="42.6,26.6 42.6,28.2 45.4,28.2 45.4,36.5 18.5,36.5 18.5,28.2 22,28.2 22,26.6 17.1,26.6 17.1,37.9 
		46.8,37.9 46.8,26.6 	"/>
	<linearGradient id="SVGID_1_" gradientUnits="userSpaceOnUse" x1="21.1818" y1="28.7208" x2="43.4041" y2="28.7208">
		<stop  offset="0" style="stop-color:#2F90C1"/>
		<stop  offset="1" style="stop-color:#16599A"/>
	</linearGradient>
	<path class="st1" d="M21.2,22.5v12.4h22.2V22.5H21.2z M30.9,32.5h-7.2v-7.6h7.2V32.5z M40.9,32.5h-7.6v-7.6h7.6V32.5z"/>
</g>
</svg>
