<?xml version="1.0" encoding="utf-8"?>
<!-- Generator: Adobe Illustrator 25.0.0, SVG Export Plug-In . SVG Version: 6.00 Build 0)  -->
<svg version="1.1" id="图层_1" xmlns="http://www.w3.org/2000/svg" xmlns:xlink="http://www.w3.org/1999/xlink" x="0px" y="0px"
	 viewBox="0 0 54 44" style="enable-background:new 0 0 54 44;" xml:space="preserve">
<style type="text/css">
	.st0{fill:#C9CCDA;}
	.st1{fill:url(#SVGID_1_);}
</style>
<g>
	<path class="st0" d="M27.8,33L27.8,33c-0.3,0-0.7,0-1,0c-5.7-0.1-11.2-1.2-15.2-3c-4.3-1.9-6.7-4.5-6.6-7.2
		c0.1-2.7,2.4-5.1,6.5-6.8c3.9-1.6,9.1-2.5,14.7-2.5c0.3,0,0.7,0,1,0c5.7,0.1,11.2,1.2,15.2,3c4.3,1.9,6.7,4.5,6.6,7.2
		c-0.1,2.7-2.4,5.1-6.5,6.8C38.6,32.1,33.3,33,27.8,33 M26.2,15.2c-5.3,0-10.3,0.8-13.9,2.4c-3.4,1.4-5.4,3.3-5.4,5.2
		c0,1.9,2,3.9,5.5,5.5c3.8,1.7,9,2.7,14.5,2.8c0.3,0,0.6,0,1,0h0c5.3,0,10.3-0.8,13.9-2.4c3.4-1.4,5.4-3.3,5.4-5.2
		c0-1.9-2-3.9-5.5-5.5c-3.8-1.7-9-2.7-14.5-2.8C26.8,15.2,26.5,15.2,26.2,15.2"/>
	<path class="st0" d="M36.2,42.3c-2.4,0-5.4-1.3-8.6-3.8c-3.1-2.5-6.2-5.9-8.8-9.9c-3.2-4.8-5.4-9.8-6.2-14.2
		c-0.9-4.6-0.1-8,2.2-9.5c0.8-0.5,1.8-0.8,2.9-0.8c2.4,0,5.4,1.3,8.6,3.8c3.1,2.5,6.2,5.9,8.8,9.9c3.2,4.8,5.4,9.8,6.2,14.2
		c0.9,4.6,0.1,8-2.2,9.5C38.3,42,37.3,42.3,36.2,42.3 M17.8,5.9c-0.7,0-1.4,0.2-1.9,0.5c-1.6,1.1-2.1,3.9-1.4,7.6
		c0.8,4.1,2.9,8.9,5.9,13.5c2.5,3.8,5.5,7.1,8.4,9.5c2.8,2.2,5.4,3.4,7.4,3.4c0.7,0,1.4-0.2,1.9-0.5c1.6-1.1,2.1-3.9,1.4-7.6
		c-0.8-4.1-2.9-8.9-5.9-13.5c-2.5-3.8-5.5-7.1-8.4-9.5C22.4,7.1,19.8,5.9,17.8,5.9"/>
	<path class="st0" d="M18.9,43c-0.9,0-1.7-0.2-2.5-0.6c-2.4-1.3-3.5-4.6-3-9.3c0.5-4.4,2.2-9.6,5-14.6c3-5.5,6.9-10.1,10.7-12.8
		c0.4-0.3,1-0.2,1.3,0.2c0.3,0.4,0.2,1-0.2,1.3c-3.5,2.5-7.2,6.9-10.1,12.2c-2.7,4.8-4.4,9.8-4.8,13.9c-0.4,3.8,0.3,6.6,2.1,7.5
		c1.7,0.9,4.4,0.1,7.5-2.3C28,35.9,31.3,31.8,34,27c2.9-5.2,4.7-10.7,4.9-15c0-0.5,0.5-0.9,1-0.9c0.5,0,0.9,0.5,0.9,1
		c-0.2,4.6-2.1,10.4-5.1,15.8c-2.8,5-6.2,9.3-9.7,12C23.3,42,20.9,43,18.9,43"/>
	<linearGradient id="SVGID_1_" gradientUnits="userSpaceOnUse" x1="32.0144" y1="5.6462" x2="41.3359" y2="5.6462">
		<stop  offset="0" style="stop-color:#2F88B5"/>
		<stop  offset="1" style="stop-color:#155591"/>
	</linearGradient>
	<path class="st1" d="M32,5.6c0,1.2,0.5,2.4,1.4,3.3c0.9,0.9,2.1,1.4,3.3,1.4c1.2,0,2.4-0.5,3.3-1.4c0.9-0.9,1.4-2.1,1.4-3.3
		c0-1.2-0.5-2.4-1.4-3.3C39.1,1.5,37.9,1,36.7,1c-1.2,0-2.4,0.5-3.3,1.4C32.5,3.2,32,4.4,32,5.6"/>
</g>
</svg>
