<?xml version="1.0" encoding="utf-8"?>
<!-- Generator: Adobe Illustrator 25.0.0, SVG Export Plug-In . SVG Version: 6.00 Build 0)  -->
<svg version="1.1" id="图层_1" xmlns="http://www.w3.org/2000/svg" xmlns:xlink="http://www.w3.org/1999/xlink" x="0px" y="0px"
	 viewBox="0 0 54 44" style="enable-background:new 0 0 54 44;" xml:space="preserve">
<style type="text/css">
	.st0{fill:#C9CCDA;}
	.st1{fill:url(#SVGID_1_);}
</style>
<g>
	<g>
		<path class="st0" d="M26.3,8.8l-0.1,11.7l-9.4-5.6v-9h-1.9V15L4.1,21.2L4,35l11.8,7l11.9-6.8l0.1-11.7l9.4,5.6v9.1h1.9V29
			l10.8-6.2L50,9L38.2,2L26.3,8.8z M25.8,34.1l-9.9,5.7l-9.9-5.9L6,22.3l9.9-5.7l9.9,5.9L25.8,34.1z M48,21.7l-9.9,5.7l-9.9-5.9
			l0.1-11.5l9.9-5.7l9.9,5.9L48,21.7z M48,21.7"/>
		<rect x="22.6" y="24.5" class="st0" width="1.9" height="7.8"/>
		<path class="st0" d="M8.3,23.1l6.5-3.7l1,1.7l-6.5,3.7L8.3,23.1z M8.3,23.1"/>
		<path class="st0" d="M8.3,32.6l1-1.7l6.5,3.8l-1,1.7L8.3,32.6z M8.3,32.6"/>
	</g>
	<linearGradient id="SVGID_1_" gradientUnits="userSpaceOnUse" x1="33.6479" y1="15.7951" x2="43.0666" y2="15.7951">
		<stop  offset="0" style="stop-color:#2F88B5"/>
		<stop  offset="1" style="stop-color:#155591"/>
	</linearGradient>
	<polygon class="st1" points="43.1,13.1 38.4,10.3 33.6,13.1 33.6,18.5 38.4,21.3 43.1,18.5 	"/>
</g>
</svg>
