<?xml version="1.0" encoding="utf-8"?>
<!-- Generator: Adobe Illustrator 25.0.0, SVG Export Plug-In . SVG Version: 6.00 Build 0)  -->
<svg version="1.1" id="图层_1" xmlns="http://www.w3.org/2000/svg" xmlns:xlink="http://www.w3.org/1999/xlink" x="0px" y="0px"
	 viewBox="0 0 54 44" style="enable-background:new 0 0 54 44;" xml:space="preserve">
<style type="text/css">
	.st0{fill:#C9CCDA;}
	.st1{fill:url(#SVGID_1_);}
	.st2{fill:url(#SVGID_2_);}
</style>
<g>
	<path class="st0" d="M37.3,39.8c-3.7,0-7.1-1.4-9.7-4c-2.6-2.6-4-6-4-9.7c0-3.7,1.4-7.1,4-9.7c2.6-2.6,6-4,9.7-4
		c3.7,0,7.1,1.4,9.7,4c2.6,2.6,4,6,4,9.7c0,3.7-1.4,7.1-4,9.7C44.4,38.4,40.9,39.8,37.3,39.8L37.3,39.8z M37.3,14.1
		c-6.7,0-12.1,5.4-12.1,12c0,3.2,1.3,6.2,3.5,8.5c2.3,2.3,5.3,3.5,8.5,3.5c3.2,0,6.3-1.3,8.5-3.5c2.3-2.3,3.5-5.3,3.5-8.5
		c0-3.2-1.3-6.2-3.5-8.5C43.5,15.3,40.5,14.1,37.3,14.1L37.3,14.1z M37.3,14.1"/>
	<path class="st0" d="M10.3,28.1c0,2.3,1.8,4.1,4.1,4.1c2.3,0,4.1-1.8,4.1-4.1c0-2.3-1.9-4.1-4.1-4.1C12.1,24,10.3,25.9,10.3,28.1
		L10.3,28.1z M16.8,28.1c0,1.3-1.1,2.4-2.4,2.4c-1.3,0-2.4-1.1-2.4-2.4c0-1.3,1.1-2.4,2.4-2.4C15.7,25.7,16.8,26.8,16.8,28.1
		L16.8,28.1z M16.8,28.1"/>
	<path class="st0" d="M14.4,32.2c-2.3,0-4.1-1.9-4.1-4.1c0-2.3,1.9-4.1,4.1-4.1c2.3,0,4.1,1.9,4.1,4.1
		C18.6,30.4,16.7,32.2,14.4,32.2L14.4,32.2z M14.4,24c-2.3,0-4.1,1.8-4.1,4.1c0,2.3,1.8,4.1,4.1,4.1c2.3,0,4.1-1.8,4.1-4.1
		C18.5,25.9,16.7,24,14.4,24L14.4,24z M14.4,30.5c-1.3,0-2.4-1.1-2.4-2.4c0-1.3,1.1-2.4,2.4-2.4c1.3,0,2.4,1.1,2.4,2.4
		C16.8,29.4,15.7,30.5,14.4,30.5L14.4,30.5z M14.4,25.8c-1.3,0-2.4,1.1-2.4,2.4c0,1.3,1.1,2.4,2.4,2.4c1.3,0,2.4-1.1,2.4-2.4
		C16.8,26.8,15.7,25.8,14.4,25.8L14.4,25.8z M14.4,25.8"/>
	<path class="st0" d="M24.9,34.4H12V38c0,0.7-0.6,1.3-1.3,1.3H7.5c-0.7,0-1.3-0.6-1.3-1.3v-8.3c0-0.1,0-0.2,0-0.2l0-0.1l0-0.1
		c0-0.2,0-0.3,0-0.4l0.6-7c0-1.2,0.2-2.2,0.7-3.1L8,17.6l-2.8-0.5l-0.1,0c-0.2,0-0.3-0.2-0.3-0.3v-1c0-0.2,0.1-0.3,0.3-0.3h4.3
		c0,0,0.1,0,0.2,0.1l0.9,0.5l2.3-6.9l0-0.1c0.5-2.7,2.4-4.2,5-4.2h18.3c2.7,0,4.5,1.5,5,4.2l0.7,2.3c0.7,0.2,1.4,0.5,2.1,0.9
		l-1.2-3.5C42.2,5.1,39.7,3,36.1,3H17.8c-3.5,0-6,2.1-6.7,5.6l-1.7,5.1H5.1c-1.1,0-2.1,0.9-2.1,2.1v1c0,1.1,0.9,2,2,2.1l0.5,0.1
		C5.2,19.8,5,20.7,5,21.7l-0.6,7c0,0.2,0,0.4,0,0.6c0,0.1,0,0.3,0,0.4V38c0,1.7,1.4,3,3,3h3.3c1.7,0,3-1.3,3-3v-1.8h12.6
		C25.8,35.6,25.3,35.1,24.9,34.4L24.9,34.4z M24.9,34.4"/>
	<path class="st0" d="M10.7,41H7.5c-1.7,0-3-1.4-3-3v-8.3c0-0.1,0-0.3,0-0.4c0-0.2,0-0.4,0-0.6l0.6-7c0-0.9,0.1-1.9,0.4-2.7L5,18.8
		c-1.1,0-2-1-2-2.1v-1c0-1.1,0.9-2.1,2.1-2.1h4.3l1.7-5C11.8,5.1,14.4,3,17.8,3h18.3c3.5,0,6,2.1,6.7,5.6l1.2,3.5l0,0
		c-0.8-0.4-1.5-0.7-2.1-0.9l0,0l0,0L41.1,9c-0.5-2.7-2.3-4.2-5-4.2H17.8c-2.6,0-4.5,1.6-5,4.2l0,0.1L10.5,16l0,0l-0.9-0.5
		c-0.1-0.1-0.1-0.1-0.2-0.1H5.1c-0.2,0-0.3,0.1-0.3,0.3v1c0,0.2,0.1,0.3,0.3,0.3l0.1,0l2.8,0.5l-0.5,1.1c-0.5,0.9-0.7,1.9-0.7,3.1
		l-0.6,7c0,0.1,0,0.3,0,0.4l0,0.1l0,0.2c0,0.1,0,0.1,0,0.2V38c0,0.7,0.6,1.3,1.3,1.3h3.3c0.7,0,1.3-0.6,1.3-1.3v-3.6h12.9l0,0
		c0.4,0.6,0.9,1.2,1.4,1.7l0,0H13.8V38C13.8,39.6,12.4,41,10.7,41L10.7,41z M5.1,13.7C4,13.7,3,14.6,3,15.7v1c0,1.1,0.9,2,2,2.1
		l0.5,0.1l0,0c-0.3,0.9-0.5,1.8-0.4,2.8l-0.6,7c0,0.2,0,0.4,0,0.6l0,0l0,0c0,0.1,0,0.3,0,0.4V38c0,1.7,1.3,3,3,3h3.3
		c1.7,0,3-1.3,3-3v-1.8h12.6c-0.5-0.5-1-1.1-1.4-1.7H12V38c0,0.7-0.6,1.3-1.3,1.3H7.5c-0.7,0-1.3-0.6-1.3-1.3v-8.3
		c0-0.1,0-0.1,0-0.2l0,0l0-0.1l0-0.1c0-0.2,0-0.3,0-0.4l0.6-7c0-1.2,0.2-2.2,0.7-3.1l0.5-1l-2.8-0.5l-0.1,0c-0.2,0-0.3-0.2-0.3-0.3
		v-1c0-0.2,0.2-0.4,0.3-0.4h4.3c0,0,0.1,0,0.2,0.1l0.9,0.5l2.3-6.9l0-0.1c0.5-2.7,2.4-4.2,5-4.2h18.3c2.7,0,4.5,1.5,5,4.2l0.7,2.2
		c0.7,0.2,1.3,0.5,2.1,0.8l-1.2-3.5C42.2,5.1,39.7,3,36.1,3H17.8c-3.4,0-6,2.1-6.7,5.6l-1.7,5.1H5.1z M5.1,13.7"/>
	<path class="st0" d="M24.6,17.3h-8.2c-1.1,0-2.5-0.8-2.7-1.8l0.5-1.9l1.4-3.8l0.1-0.2c0.1-0.3,0.1-0.4,0.4-0.7c0,0,0.1-0.1,0.1-0.1
		h21.6c0,0,0,0.1,0.1,0.1c0.3,0.3,0.3,0.4,0.4,0.7l0.4,1c0.7,0.1,1.3,0.2,2,0.3L40,9.2c-0.1-0.7-0.4-1.1-0.8-1.4
		c-0.1-0.1-0.2-0.2-0.3-0.3L38.6,7H15.4l-0.3,0.3c-0.1,0.1-0.2,0.2-0.3,0.3c-0.3,0.4-0.7,0.7-0.8,1.5L12.6,13L12,15.3l0,0.1
		c0.2,2,2.5,3.6,4.4,3.6h7.2C23.9,18.5,24.3,17.9,24.6,17.3L24.6,17.3z M24.6,17.3"/>
	<path class="st0" d="M23.7,19.1h-7.2c-2,0-4.3-1.5-4.4-3.6l0-0.1l0,0l0.6-2.3L14,9.2c0.1-0.8,0.5-1.2,0.8-1.5
		c0.1-0.1,0.2-0.2,0.3-0.3L15.4,7h23.3l0.3,0.3c0.1,0.1,0.2,0.2,0.3,0.3l0,0c0.3,0.4,0.6,0.7,0.8,1.4l0.7,1.8l0,0
		c-0.6-0.1-1.3-0.2-2-0.3l0,0l-0.4-1.1c-0.1-0.3-0.1-0.4-0.4-0.7c0,0,0,0,0,0c0,0,0,0,0,0H16.2c0,0,0,0-0.1,0.1l0,0
		c-0.3,0.3-0.3,0.4-0.4,0.7l-0.1,0.2l-1.4,3.8l-0.5,1.9c0.2,1,1.6,1.8,2.6,1.8h8.2l0,0C24.3,17.8,24,18.4,23.7,19.1L23.7,19.1z
		 M12,15.3l0,0.1c0.2,2,2.5,3.6,4.4,3.6h7.2c0.3-0.7,0.6-1.2,1-1.7h-8.2c-0.5,0-1.2-0.2-1.7-0.5c-0.5-0.4-0.9-0.8-1-1.3l0,0l0,0
		l0.5-1.9l1.4-3.8l0.1-0.2c0.1-0.3,0.1-0.4,0.4-0.7l0,0c0,0,0,0,0.1-0.1l0,0h21.6l0,0c0,0,0,0,0,0c0,0,0,0,0,0
		c0.3,0.3,0.3,0.4,0.4,0.7l0.4,1c0.7,0.1,1.3,0.2,1.9,0.3l-0.6-1.7c-0.1-0.7-0.4-1.1-0.8-1.4l0,0c-0.1-0.1-0.2-0.2-0.3-0.3L38.6,7
		H15.4l-0.3,0.3c-0.1,0.1-0.2,0.2-0.3,0.3c-0.3,0.4-0.7,0.7-0.8,1.5L12.6,13L12,15.3z M12,15.3"/>
	<path class="st0" d="M47.8,36.6V38c0,0.7-0.6,1.3-1.3,1.3h-2.5c-0.9,0.4-1.8,0.8-2.7,1c0.5,0.4,1.2,0.7,1.9,0.7h3.3
		c1.7,0,3-1.3,3-3v-3.3C49,35.4,48.4,36,47.8,36.6L47.8,36.6z M47.8,36.6"/>
	<path class="st0" d="M46.5,41h-3.3c-0.7,0-1.4-0.2-1.9-0.7l0,0l0,0c0.9-0.3,1.9-0.6,2.7-1l0,0h2.5c0.7,0,1.3-0.6,1.3-1.3v-1.3l0,0
		c0.6-0.6,1.2-1.3,1.7-2l0,0V38C49.6,39.6,48.2,41,46.5,41L46.5,41z M41.4,40.3c0.5,0.4,1.2,0.7,1.9,0.7h3.3c1.7,0,3-1.3,3-3v-3.3
		c-0.5,0.7-1.1,1.4-1.7,1.9V38c0,0.7-0.6,1.3-1.3,1.3h-2.5C43.2,39.7,42.3,40,41.4,40.3L41.4,40.3z M41.4,40.3"/>
	<path class="st0" d="M22.5,30.8H23c-0.2-0.6-0.4-1.1-0.5-1.7c-0.1,0-0.1,0-0.1-0.1v-0.3c-0.2-1-0.3-2-0.3-3c0-0.4,0-0.8,0.1-1.2
		c-0.9,0.2-1.5,0.9-1.5,1.8V29C20.7,30,21.5,30.8,22.5,30.8L22.5,30.8z M22.5,30.8"/>
	<path class="st0" d="M23,30.8h-0.5c-1,0-1.9-0.8-1.9-1.8v-2.7c0-0.9,0.6-1.7,1.5-1.8l0,0l0,0c0,0.4-0.1,0.8-0.1,1.2
		c0,1,0.1,2,0.3,3l0,0.3c0,0,0,0.1,0.1,0.1l0,0l0,0C22.6,29.6,22.8,30.2,23,30.8L23,30.8z M22.1,24.5c-0.9,0.2-1.5,0.9-1.5,1.8V29
		c0,1,0.8,1.8,1.8,1.8H23c-0.2-0.6-0.4-1.1-0.5-1.7c-0.1,0-0.1-0.1-0.1-0.1v-0.3c-0.2-1-0.3-2-0.3-3C22.1,25.3,22.1,24.8,22.1,24.5
		L22.1,24.5z M22.1,24.5"/>
	<path class="st0" d="M48.4,15.4h0.4c0.2,0,0.3,0.2,0.3,0.3v0.5c0.5,0.6,0.9,1.2,1.3,1.8c0.3-0.4,0.5-0.8,0.5-1.3v-1
		c0-1.1-0.9-2.1-2.1-2.1h-2.3C47.2,14.2,47.9,14.8,48.4,15.4L48.4,15.4z M48.4,15.4"/>
	<path class="st0" d="M50.4,18.1L50.4,18.1c-0.4-0.7-0.8-1.3-1.3-1.9l0,0v-0.5c0-0.2-0.1-0.3-0.3-0.3h-0.4l0,0
		c-0.6-0.6-1.2-1.2-1.9-1.7l0,0h2.4c1.2,0,2.1,0.9,2.1,2.1v1C50.9,17.2,50.8,17.7,50.4,18.1L50.4,18.1z M49.2,16.2
		c0.4,0.6,0.9,1.2,1.2,1.8c0.3-0.4,0.5-0.8,0.5-1.3v-1c0-1.1-0.9-2.1-2.1-2.1h-2.3c0.7,0.5,1.3,1.1,1.9,1.7h0.4
		c0.2,0,0.3,0.2,0.3,0.3V16.2z M49.2,16.2"/>
	<linearGradient id="SVGID_1_" gradientUnits="userSpaceOnUse" x1="29.1184" y1="26.1023" x2="45.4449" y2="26.1023">
		<stop  offset="0" style="stop-color:#2F88B5"/>
		<stop  offset="1" style="stop-color:#155591"/>
	</linearGradient>
	<path class="st1" d="M44.3,27.7c-0.9-1.5-0.4-3.5,1.2-4.4l-1.7-2.9c-0.5,0.3-1,0.4-1.6,0.4c-1.8,0-3.2-1.4-3.2-3.2h-3.3
		c0,0.6-0.1,1.1-0.4,1.6c-0.9,1.5-2.9,2.1-4.4,1.2l-1.7,2.9c0.5,0.3,0.9,0.7,1.2,1.2c0.9,1.5,0.4,3.5-1.2,4.4l1.7,2.9
		c0.5-0.3,1-0.4,1.6-0.4c1.8,0,3.2,1.4,3.2,3.2h3.3c0-0.5,0.1-1.1,0.4-1.6c0.9-1.5,2.9-2.1,4.4-1.2l1.7-2.9
		C45,28.6,44.5,28.2,44.3,27.7z M37.3,29.5c-1.9,0-3.4-1.5-3.4-3.4c0-1.9,1.5-3.4,3.4-3.4c1.9,0,3.4,1.5,3.4,3.4
		C40.7,28,39.2,29.5,37.3,29.5z"/>
	<linearGradient id="SVGID_2_" gradientUnits="userSpaceOnUse" x1="37.2817" y1="29.5194" x2="37.2817" y2="29.5194">
		<stop  offset="0" style="stop-color:#2F88B5"/>
		<stop  offset="1" style="stop-color:#155591"/>
	</linearGradient>
	<path class="st2" d="M37.3,29.5"/>
</g>
</svg>
