<?xml version="1.0" encoding="utf-8"?>
<!-- Generator: Adobe Illustrator 25.0.0, SVG Export Plug-In . SVG Version: 6.00 Build 0)  -->
<svg version="1.1" id="图层_1" xmlns="http://www.w3.org/2000/svg" xmlns:xlink="http://www.w3.org/1999/xlink" x="0px" y="0px"
	 viewBox="0 0 54 44" style="enable-background:new 0 0 54 44;" xml:space="preserve">
<style type="text/css">
	.st0{fill:#C9CCDA;}
	.st1{fill:url(#SVGID_1_);}
	.st2{fill:url(#SVGID_2_);}
</style>
<path class="st0" d="M49.7,17.6L39.4,0H15.5l-12,20.5l12,20.5h5.6v-2.9h-3.9L6.9,20.5L17.2,2.9h20.6l8.6,14.7H49.7z M49.7,17.6"/>
<path class="st0" d="M20.7,29.9c-1.7-1.1-3-2.7-3.9-4.6c-1-2.1-1.3-4.4-0.9-6.7c0.4-2.3,1.5-4.4,3.1-6c1.6-1.6,3.7-2.7,6-3.1
	c0.6-0.1,1.3-0.2,2-0.2c3.7,0,7.3,1.9,9.3,4.9h-2.6c-1.7-1.9-4.2-2.9-6.8-2.9c-0.8,0-1.5,0.1-2.2,0.3c-3.3,0.8-5.9,3.4-6.8,6.8
	c-0.8,3.3,0.2,6.7,2.7,9V29.9z"/>
<linearGradient id="SVGID_1_" gradientUnits="userSpaceOnUse" x1="24.0624" y1="30.8" x2="50.5" y2="30.8">
	<stop  offset="0" style="stop-color:#2F88B5"/>
	<stop  offset="1" style="stop-color:#155591"/>
</linearGradient>
<path class="st1" d="M46,25c-3.3,0.4-6.5-1.4-7.9-4.4h-1.6c-1.4,3.1-4.6,4.9-7.9,4.4l-0.8,1.4c2,2.6,2,6.3,0,8.9l0.8,1.4
	c3.3-0.4,6.5,1.4,7.9,4.4h1.6c1.4-3.1,4.6-4.9,7.9-4.4l0.8-1.4c-2-2.6-2-6.3,0-8.9L46,25z M34.1,17.6h6.3c0,2.5,2.1,4.5,4.6,4.5
	c0.8,0,1.6-0.2,2.3-0.6l3.2,5.4c-1.4,0.8-2.3,2.2-2.3,3.9c0,1.7,0.9,3.1,2.3,3.9l-3.2,5.4c-0.7-0.4-1.5-0.6-2.3-0.6
	c-2.5,0-4.6,2-4.6,4.5h-6.3c0-2.5-2.1-4.5-4.6-4.5c-0.8,0-1.6,0.2-2.3,0.6l-3.2-5.4c1.4-0.8,2.3-2.2,2.3-3.9c0-1.7-0.9-3.1-2.3-3.9
	l3.2-5.4c0.7,0.4,1.5,0.6,2.3,0.6C32.1,22.1,34.1,20.1,34.1,17.6L34.1,17.6z M34.1,17.6"/>
<linearGradient id="SVGID_2_" gradientUnits="userSpaceOnUse" x1="32.875" y1="30.8" x2="41.6877" y2="30.8">
	<stop  offset="0" style="stop-color:#2F88B5"/>
	<stop  offset="1" style="stop-color:#155591"/>
</linearGradient>
<path class="st2" d="M37.3,32.3c0.8,0,1.5-0.7,1.5-1.5c0-0.8-0.7-1.5-1.5-1.5c-0.8,0-1.5,0.7-1.5,1.5C35.8,31.6,36.5,32.3,37.3,32.3
	L37.3,32.3z M37.3,35.2c-2.4,0-4.4-2-4.4-4.4c0-2.4,2-4.4,4.4-4.4c2.4,0,4.4,2,4.4,4.4C41.7,33.2,39.7,35.2,37.3,35.2L37.3,35.2z
	 M37.3,35.2"/>
</svg>
