<?xml version="1.0" encoding="utf-8"?>
<!-- Generator: Adobe Illustrator 25.0.0, SVG Export Plug-In . SVG Version: 6.00 Build 0)  -->
<svg version="1.1" id="图层_1" xmlns="http://www.w3.org/2000/svg" xmlns:xlink="http://www.w3.org/1999/xlink" x="0px" y="0px"
	 viewBox="0 0 54 44" style="enable-background:new 0 0 54 44;" xml:space="preserve">
<style type="text/css">
	.st0{fill:#C9CCDA;}
	.st1{fill:url(#SVGID_1_);}
</style>
<g>
	<path class="st0" d="M47,20.4L45.4,4.7c0-0.6-0.4-1-1-1.1c0,0-0.1,0-0.1,0L28.6,2c-0.4,0-0.7,0.1-1,0.3L9.1,20.9
		c-2.8,2.8-2.8,4.5,0,7.3l11.8,11.8c1.2,1.2,2.3,2.1,3.6,2.1c1.3,0,2.4-0.8,3.6-2.1l18.5-18.5C46.9,21.1,47,20.8,47,20.4z
		 M26.4,38.2c-0.6,0.6-1.4,1.4-1.9,1.4c-0.5,0-1.3-0.8-1.9-1.4L10.8,26.4c-1.8-1.8-1.8-2,0-3.8L28.9,4.5l14.2,1.4l1.4,14.2
		L26.4,38.2z"/>
	<path class="st0" d="M14.4,26.5c-0.2,0-0.3-0.1-0.4-0.2c-1.6-1.6-1.2-2.5,0.2-3.9l5.5-5.5c0.2-0.2,0.6-0.2,0.9,0
		c0.2,0.2,0.2,0.6,0,0.9l-5.5,5.5c-1.1,1.1-1.1,1.3-0.2,2.2c0.2,0.2,0.2,0.6,0,0.9C14.8,26.4,14.6,26.5,14.4,26.5L14.4,26.5z"/>
	<path class="st0" d="M21.4,16.6c-0.2,0-0.3-0.1-0.4-0.2c-0.2-0.2-0.2-0.6,0-0.9l0.5-0.5c0.2-0.2,0.6-0.2,0.9,0
		c0.2,0.2,0.2,0.6,0,0.9l-0.5,0.5C21.7,16.6,21.5,16.6,21.4,16.6L21.4,16.6z"/>
	<linearGradient id="SVGID_1_" gradientUnits="userSpaceOnUse" x1="30.8418" y1="12.9651" x2="40.9289" y2="12.9651">
		<stop  offset="0" style="stop-color:#2F88B5"/>
		<stop  offset="1" style="stop-color:#155591"/>
	</linearGradient>
	<path class="st1" d="M35.9,7.9c-2.8,0-5,2.3-5,5c0,2.8,2.3,5,5,5c2.8,0,5-2.3,5-5C40.9,10.2,38.7,7.9,35.9,7.9z M35.9,15.6
		c-1.4,0-2.6-1.2-2.6-2.6c0-1.4,1.2-2.6,2.6-2.6c1.4,0,2.6,1.2,2.6,2.6C38.5,14.4,37.3,15.6,35.9,15.6z"/>
	<path class="st0" d="M35.9,10.4"/>
</g>
</svg>
